<svg width="24" height="24" viewBox="0 0 24 24" fill="none" xmlns="http://www.w3.org/2000/svg">
<g id="Frame">
<g id="Group">
<path id="Vector" d="M13.6633 10.2C13.6991 10.2244 13.7415 10.2374 13.7848 10.2374C13.8281 10.2374 13.8705 10.2244 13.9063 10.2L22.5643 4.44C22.6472 4.39612 22.7143 4.32742 22.7563 4.2435C22.7983 4.15959 22.8129 4.06466 22.7983 3.972C22.7105 3.56262 22.4827 3.19667 22.1542 2.93713C21.8256 2.67758 21.4169 2.54068 20.9983 2.55H6.14829C5.72077 2.54341 5.30487 2.68922 4.97506 2.96131C4.64525 3.23341 4.42306 3.61402 4.34829 4.035C4.3331 4.12343 4.3447 4.21437 4.38158 4.29616C4.41847 4.37795 4.47896 4.44684 4.55529 4.494L13.6633 10.2Z" fill="white"/>
<path id="Vector_2" d="M14.6996 11.334C14.433 11.5103 14.1191 11.6013 13.7996 11.595C13.5048 11.5929 13.2158 11.5121 12.9626 11.361L5.04261 6.366C4.97347 6.32386 4.89407 6.30157 4.81311 6.30157C4.73215 6.30157 4.65275 6.32386 4.58361 6.366C4.51322 6.40558 4.45451 6.46304 4.41343 6.53257C4.37234 6.6021 4.35033 6.68124 4.34961 6.762V16.5C4.34961 16.9774 4.53925 17.4352 4.87682 17.7728C5.21438 18.1104 5.67222 18.3 6.14961 18.3H20.9996C21.477 18.3 21.9348 18.1104 22.2724 17.7728C22.61 17.4352 22.7996 16.9774 22.7996 16.5V6.753C22.8008 6.67185 22.7796 6.59194 22.7383 6.52207C22.697 6.4522 22.6373 6.39508 22.5656 6.357C22.4948 6.31502 22.4139 6.29287 22.3316 6.29287C22.2493 6.29287 22.1684 6.31502 22.0976 6.357L14.6996 11.334Z" fill="white"/>
<path id="Vector_3" d="M18.7492 19.65H3.44922C3.32987 19.65 3.21541 19.6026 3.13102 19.5182C3.04663 19.4338 2.99922 19.3193 2.99922 19.2V6.6C2.99922 6.3613 2.9044 6.13238 2.73561 5.9636C2.56683 5.79482 2.33791 5.7 2.09922 5.7C1.86052 5.7 1.63161 5.79482 1.46282 5.9636C1.29404 6.13238 1.19922 6.3613 1.19922 6.6L1.19922 19.65C1.19922 20.1274 1.38886 20.5852 1.72643 20.9228C2.06399 21.2604 2.52183 21.45 2.99922 21.45H18.7492C18.9879 21.45 19.2168 21.3552 19.3856 21.1864C19.5544 21.0176 19.6492 20.7887 19.6492 20.55C19.6492 20.3113 19.5544 20.0824 19.3856 19.9136C19.2168 19.7448 18.9879 19.65 18.7492 19.65Z" fill="white"/>
</g>
</g>
</svg>
