<svg width="40" height="40" viewBox="0 0 40 40" fill="none" xmlns="http://www.w3.org/2000/svg">
<g id="Frame">
<path id="Vector" fill-rule="evenodd" clip-rule="evenodd" d="M36.9869 12.887C37.1687 12.9599 37.3246 13.0856 37.4343 13.2479C37.5441 13.4102 37.6027 13.6016 37.6027 13.7975C37.6027 13.9934 37.5441 14.1848 37.4343 14.3471C37.3246 14.5094 37.1687 14.6351 36.9869 14.708L20.8439 21.218C20.2109 21.473 19.5029 21.4715 18.8729 21.2135L6.88942 16.3085V28.16C7.45443 28.4117 7.93413 28.8222 8.27019 29.3414C8.60626 29.8607 8.78422 30.4665 8.78242 31.085V36.263C8.78242 36.4619 8.7034 36.6527 8.56275 36.7933C8.4221 36.934 8.23133 37.013 8.03242 37.013H3.12892C2.93001 37.013 2.73924 36.934 2.59859 36.7933C2.45794 36.6527 2.37892 36.4619 2.37892 36.263V31.085C2.37892 29.7755 3.15442 28.655 4.27342 28.1585V15.236L2.97292 14.705C2.7926 14.631 2.63836 14.5051 2.5298 14.3432C2.42125 14.1814 2.36328 13.9909 2.36328 13.796C2.36328 13.6011 2.42125 13.4106 2.5298 13.2487C2.63836 13.0869 2.7926 12.961 2.97292 12.887L18.8729 6.38C19.5029 6.122 20.2109 6.1205 20.8439 6.3755L36.9869 12.887ZM21.5774 23.039L30.3524 19.5005V25.256C30.3557 25.4526 30.3103 25.647 30.2203 25.8218C30.1302 25.9966 29.9984 26.1465 29.8364 26.258C28.5044 27.152 24.7109 29.369 19.8614 29.369C15.0104 29.369 11.3909 27.149 10.1324 26.258C9.97933 26.1463 9.85539 25.9994 9.77106 25.8297C9.68673 25.66 9.64449 25.4725 9.64792 25.283V19.559L18.1289 23.03C19.2338 23.4823 20.4702 23.4855 21.5774 23.039Z" fill="black"/>
</g>
</svg>
