<svg width="24" height="24" viewBox="0 0 24 24" fill="none" xmlns="http://www.w3.org/2000/svg">
<g id="Frame">
<path id="Vector" d="M18.7942 14.304C18.7811 14.4122 18.7292 14.512 18.6481 14.5849C18.567 14.6577 18.4622 14.6986 18.3532 14.7H16.4992C16.3806 14.7023 16.2675 14.7505 16.1836 14.8343C16.0997 14.9182 16.0515 15.0314 16.0492 15.15V22.35C16.0492 22.4693 16.0966 22.5838 16.181 22.6682C16.2654 22.7526 16.3799 22.8 16.4992 22.8H21.8992C22.1379 22.8 22.3668 22.7052 22.5356 22.5364C22.7044 22.3676 22.7992 22.1387 22.7992 21.9V2.1C22.7992 1.8613 22.7044 1.63238 22.5356 1.4636C22.3668 1.29482 22.1379 1.2 21.8992 1.2H2.09922C1.86052 1.2 1.63161 1.29482 1.46282 1.4636C1.29404 1.63238 1.19922 1.8613 1.19922 2.1L1.19922 21.9C1.19922 22.1387 1.29404 22.3676 1.46282 22.5364C1.63161 22.7052 1.86052 22.8 2.09922 22.8H11.9992C12.1178 22.7977 12.231 22.7495 12.3149 22.6656C12.3988 22.5817 12.4469 22.4686 12.4492 22.35V15.15C12.4492 15.0306 12.4018 14.9162 12.3174 14.8318C12.233 14.7474 12.1186 14.7 11.9992 14.7H10.1992C10.0799 14.7 9.96541 14.6526 9.88102 14.5682C9.79663 14.4838 9.74922 14.3693 9.74922 14.25V11.55C9.74922 11.4306 9.79663 11.3162 9.88102 11.2318C9.96541 11.1474 10.0799 11.1 10.1992 11.1H11.9992C12.1186 11.1 12.233 11.0526 12.3174 10.9682C12.4018 10.8838 12.4492 10.7693 12.4492 10.65V9.471C12.4492 8.11282 12.9888 6.81028 13.9491 5.8499C14.9095 4.88953 16.212 4.35 17.5702 4.35H18.7492C18.8686 4.35 18.983 4.39741 19.0674 4.4818C19.1518 4.56619 19.1992 4.68065 19.1992 4.8V7.5C19.1992 7.61934 19.1518 7.7338 19.0674 7.81819C18.983 7.90259 18.8686 7.95 18.7492 7.95H17.5702C17.1668 7.95 16.78 8.11024 16.4947 8.39549C16.2095 8.68073 16.0492 9.0676 16.0492 9.471V10.65C16.0492 10.7693 16.0966 10.8838 16.181 10.9682C16.2654 11.0526 16.3799 11.1 16.4992 11.1H18.6862C18.7509 11.0994 18.8149 11.1128 18.8739 11.1392C18.9329 11.1656 18.9855 11.2044 19.0282 11.253C19.0694 11.3009 19.1003 11.3568 19.1189 11.4172C19.1374 11.4776 19.1433 11.5412 19.1362 11.604L18.7942 14.304Z" fill="white"/>
</g>
</svg>
