<svg width="80" height="80" viewBox="0 0 80 80" fill="none" xmlns="http://www.w3.org/2000/svg">
<path d="M25.5 48H21.5L18.5002 50V54H16.5002L16.5 56H62.5V54H60.5V50L57.5 48H53.5V52H51.5L49.5 53V54H29.5V53L27.5 52H25.5V48Z" fill="black"/>
<path d="M25.5 32V33H22L18.5 31V27L19.5 26H23.5V32H25.5Z" fill="black"/>
<path d="M53.5 32V33H57L60.5 31V27L59.5 26H55.5V32H53.5Z" fill="black"/>
<path fill-rule="evenodd" clip-rule="evenodd" d="M27.5 33V26L28.5 25L27 24.5L27.5 23H30.5L33.5 20H45.5L48.5 23H51.5L52 24.5L50.5 25L51.5 26V33H27.5ZM48.9999 25H29.9999L33.4999 21H45.4999L48.9999 25ZM34.5 27.5L29.5 27V28.5L30.5 29H34.5V27.5ZM49.5 27L44.5 27.5V29H48.5L49.5 28.5V27Z" fill="black"/>
<path fill-rule="evenodd" clip-rule="evenodd" d="M10.5 32L6.5 37H13.5L15.5 40.5L13.5 44H6.5L10.5 49H15.5L20.5 46H58.5L63.5 49H68.5L72.5 44H65.5L63.5 40.5L65.5 37H72.5L68.5 32H63.5L58.5 35H20.5L15.5 32H10.5ZM57.5265 39.3663C57.5104 39.1651 57.4349 39.0081 57.3001 38.8955C57.1673 38.7828 56.965 38.7264 56.6934 38.7264C56.5203 38.7264 56.3784 38.7475 56.2678 38.7898C56.1591 38.8301 56.0786 38.8854 56.0263 38.9558C55.974 39.0263 55.9468 39.1067 55.9448 39.1973C55.9408 39.2718 55.9538 39.3392 55.984 39.3995C56.0162 39.4579 56.0665 39.5112 56.1349 39.5595C56.2034 39.6058 56.2909 39.6481 56.3975 39.6863C56.5042 39.7245 56.631 39.7587 56.7779 39.7889L57.285 39.8976C57.6271 39.97 57.9199 40.0656 58.1634 40.1843C58.4068 40.3031 58.6061 40.4429 58.761 40.6039C58.916 40.7629 59.0297 40.942 59.1021 41.1412C59.1766 41.3404 59.2148 41.5577 59.2168 41.7932C59.2148 42.1997 59.1132 42.5438 58.9119 42.8255C58.7107 43.1072 58.4229 43.3215 58.0486 43.4684C57.6764 43.6153 57.2286 43.6888 56.7054 43.6888C56.1681 43.6888 55.6993 43.6093 55.2988 43.4503C54.9004 43.2913 54.5905 43.0469 54.3691 42.7168C54.1498 42.3848 54.0391 41.9602 54.0371 41.443H55.6309C55.6409 41.6322 55.6882 41.7912 55.7727 41.92C55.8572 42.0487 55.976 42.1463 56.1289 42.2127C56.2839 42.2792 56.468 42.3124 56.6813 42.3124C56.8604 42.3124 57.0103 42.2902 57.131 42.246C57.2518 42.2017 57.3433 42.1403 57.4057 42.0618C57.4681 41.9833 57.5003 41.8938 57.5023 41.7932C57.5003 41.6986 57.4691 41.6161 57.4087 41.5457C57.3504 41.4732 57.2538 41.4088 57.119 41.3525C56.9841 41.2941 56.802 41.2398 56.5726 41.1895L55.9569 41.0567C55.4095 40.938 54.9779 40.7397 54.6619 40.462C54.348 40.1823 54.1921 39.801 54.1941 39.318C54.1921 38.9256 54.2967 38.5825 54.508 38.2887C54.7213 37.9929 55.0161 37.7625 55.3924 37.5975C55.7707 37.4325 56.2044 37.35 56.6934 37.35C57.1924 37.35 57.6241 37.4335 57.9883 37.6005C58.3525 37.7676 58.6332 38.003 58.8304 38.3069C59.0297 38.6087 59.1303 38.9619 59.1323 39.3663H57.5265ZM53.4109 38.1589V37.4345H52.2518V38.1589C52.2518 38.4366 52.2186 38.671 52.1522 38.8622C52.0858 39.0534 52.0103 39.2214 51.9258 39.3663L52.614 39.7164C52.7428 39.6037 52.8675 39.4639 52.9883 39.2969C53.111 39.1278 53.2116 38.9457 53.2901 38.7505C53.3706 38.5533 53.4109 38.3561 53.4109 38.1589ZM46.334 43.6163V37.4345H49.0023C49.4611 37.4345 49.8626 37.518 50.2067 37.685C50.5508 37.852 50.8184 38.0925 51.0096 38.4064C51.2008 38.7203 51.2963 39.0966 51.2963 39.5353C51.2963 39.978 51.1977 40.3513 51.0005 40.6552C50.8183 40.9388 50.5669 41.1576 50.2462 41.3114L51.5016 43.6163H49.6784L48.5931 41.5758H48.0123V43.6163H46.334ZM48.0123 38.7747V40.2718H48.6039C48.8011 40.2718 48.9691 40.2477 49.108 40.1994C49.2488 40.1491 49.3565 40.0696 49.4309 39.9609C49.5074 39.8523 49.5456 39.7104 49.5456 39.5353C49.5456 39.3582 49.5074 39.2144 49.4309 39.1037C49.3565 38.991 49.2488 38.9085 49.108 38.8562C48.9691 38.8018 48.8011 38.7747 48.6039 38.7747H48.0123ZM41.0469 37.4345V43.6163H45.4901V42.264H42.7251V41.2015H45.2727V39.8492H42.7251V38.7867H45.5021V37.4345H41.0469ZM36.1895 43.6163V37.4345H37.8677V42.264H40.367V43.6163H36.1895ZM31.334 37.4345V43.6163H35.5115V42.2641H33.0123V37.4345H31.334ZM30.5376 37.4345V43.6163H28.8594V37.4345H30.5376ZM23.0302 37.4345H20.9414V43.6163H22.5835V40.0183H22.6317L24.0082 43.568H24.9982L26.3746 40.0425H26.4229V43.6163H28.065V37.4345H25.9762L24.5394 40.9359H24.467L23.0302 37.4345Z" fill="black"/>
<path fill-rule="evenodd" clip-rule="evenodd" d="M40 76C59.8823 76 76 59.8823 76 40C76 20.1177 59.8823 4 40 4C20.1177 4 4 20.1177 4 40C4 59.8823 20.1177 76 40 76ZM40 80C62.0914 80 80 62.0914 80 40C80 17.9086 62.0914 0 40 0C17.9086 0 0 17.9086 0 40C0 62.0914 17.9086 80 40 80Z" fill="black"/>
</svg>
