<svg width="40" height="40" viewBox="0 0 40 40" fill="none" xmlns="http://www.w3.org/2000/svg">
<g id="Full Logo">
<g id="Logo Mark">
<g id="Lift">
<path id="Vector 13" d="M13.25 24H11.25L9.75009 25V27H8.75009L8.75 28H31.75V27H30.75V25L29.25 24H27.25V26H26.25L25.25 26.5V27H15.25V26.5L14.25 26H13.25V24Z" fill="white"/>
<path id="Vector 12" d="M13.25 16V16.5H11.5L9.75 15.5V13.5L10.25 13H12.25V16H13.25Z" fill="white"/>
<path id="Vector 14" d="M27.25 16V16.5H29L30.75 15.5V13.5L30.25 13H28.25V16H27.25Z" fill="white"/>
</g>
<path id="Car" fill-rule="evenodd" clip-rule="evenodd" d="M14.25 16.5V13L14.75 12.5L14 12.25L14.25 11.5H15.75L17.25 10H23.25L24.75 11.5H26.25L26.5 12.25L25.75 12.5L26.25 13V16.5H14.25ZM25 12.5H15.5L17.25 10.5H23.25L25 12.5ZM17.75 13.75L15.25 13.5V14.25L15.75 14.5H17.75V13.75ZM25.25 13.5L22.75 13.75V14.5H24.75L25.25 14.25V13.5Z" fill="white"/>
<path id="Wrench" fill-rule="evenodd" clip-rule="evenodd" d="M5.75 16L3.75 18.5H7.25L8.25 20.25L7.25 22H3.75L5.75 24.5H8.25L10.75 23H29.75L32.25 24.5H34.75L36.75 22H33.25L32.25 20.25L33.25 18.5H36.75L34.75 16H32.25L29.75 17.5H10.75L8.25 16H5.75ZM29.2642 19.6832C29.2562 19.5825 29.2184 19.5041 29.151 19.4477C29.0846 19.3914 28.9835 19.3632 28.8477 19.3632C28.7611 19.3632 28.6902 19.3738 28.6349 19.3949C28.5805 19.415 28.5403 19.4427 28.5141 19.4779C28.488 19.5131 28.4744 19.5534 28.4734 19.5986C28.4714 19.6359 28.4779 19.6696 28.493 19.6998C28.5091 19.7289 28.5342 19.7556 28.5684 19.7797C28.6027 19.8029 28.6464 19.824 28.6998 19.8431C28.7531 19.8623 28.8165 19.8794 28.8899 19.8944L29.1435 19.9488C29.3145 19.985 29.4609 20.0328 29.5827 20.0922C29.7044 20.1515 29.804 20.2214 29.8815 20.3019C29.959 20.3814 30.0158 20.471 30.052 20.5706C30.0893 20.6702 30.1084 20.7789 30.1094 20.8966C30.1084 21.0998 30.0576 21.2719 29.9569 21.4127C29.8563 21.5536 29.7124 21.6608 29.5253 21.7342C29.3392 21.8077 29.1153 21.8444 28.8537 21.8444C28.585 21.8444 28.3506 21.8046 28.1504 21.7251C27.9512 21.6457 27.7962 21.5234 27.6855 21.3584C27.5759 21.1924 27.5205 20.9801 27.5195 20.7215H28.3164C28.3214 20.8161 28.3451 20.8956 28.3873 20.96C28.4296 21.0244 28.489 21.0732 28.5654 21.1064C28.6429 21.1396 28.735 21.1562 28.8416 21.1562C28.9312 21.1562 29.0061 21.1451 29.0665 21.123C29.1269 21.1008 29.1726 21.0701 29.2038 21.0309C29.235 20.9917 29.2511 20.9469 29.2521 20.8966C29.2511 20.8493 29.2355 20.808 29.2053 20.7728C29.1762 20.7366 29.1279 20.7044 29.0605 20.6762C28.993 20.6471 28.902 20.6199 28.7873 20.5947L28.4794 20.5283C28.2057 20.469 27.9899 20.3699 27.8319 20.231C27.675 20.0912 27.597 19.9005 27.598 19.659C27.597 19.4628 27.6493 19.2913 27.755 19.1444C27.8616 18.9965 28.009 18.8812 28.1972 18.7987C28.3863 18.7162 28.6032 18.675 28.8477 18.675C29.0972 18.675 29.313 18.7167 29.4951 18.8003C29.6772 18.8838 29.8176 19.0015 29.9162 19.1534C30.0158 19.3043 30.0661 19.4809 30.0671 19.6832H29.2642ZM27.2054 19.0794V18.7172H26.6259V19.0794C26.6259 19.2182 26.6093 19.3354 26.5761 19.431C26.5429 19.5266 26.5051 19.6106 26.4629 19.6831L26.807 19.8581C26.8714 19.8018 26.9338 19.7319 26.9941 19.6484C27.0555 19.5638 27.1058 19.4728 27.1451 19.3752C27.1853 19.2766 27.2054 19.178 27.2054 19.0794ZM23.668 21.8081V18.7172H25.0021C25.2315 18.7172 25.4323 18.759 25.6043 18.8425C25.7764 18.926 25.9102 19.0462 26.0058 19.2032C26.1014 19.3602 26.1491 19.5483 26.1491 19.7677C26.1491 19.989 26.0998 20.1756 26.0012 20.3276C25.9101 20.4694 25.7844 20.5788 25.6241 20.6557L26.2518 21.8081H25.3402L24.7975 20.7879H24.5071V21.8081H23.668ZM24.5071 19.3873V20.1359H24.8029C24.9015 20.1359 24.9855 20.1238 25.055 20.0997C25.1254 20.0745 25.1792 20.0348 25.2164 19.9805C25.2547 19.9261 25.2738 19.8552 25.2738 19.7677C25.2738 19.6791 25.2547 19.6072 25.2164 19.5518C25.1792 19.4955 25.1254 19.4542 25.055 19.4281C24.9855 19.4009 24.9015 19.3873 24.8029 19.3873H24.5071ZM21.0234 18.7172V21.8081H23.245V21.1319H21.8626V20.6007H23.1364V19.9245H21.8626V19.3933H23.2511V18.7172H21.0234ZM18.5938 21.8081V18.7172H19.4329V21.132H20.6825V21.8081H18.5938ZM16.168 18.7172V21.8081H18.2567V21.132H17.0071V18.7172H16.168ZM15.7688 18.7172V21.8081H14.9297V18.7172H15.7688ZM12.0151 18.7172H10.9707V21.8081H11.7917V20.0091H11.8159L12.5041 21.7839H12.9991L13.6873 20.0211H13.7115V21.8081H14.5325V18.7172H13.4881L12.7697 20.4679H12.7335L12.0151 18.7172Z" fill="white"/>
</g>
<path id="Guide Circle (Stroke)" fill-rule="evenodd" clip-rule="evenodd" d="M20 38C29.9411 38 38 29.9411 38 20C38 10.0589 29.9411 2 20 2C10.0589 2 2 10.0589 2 20C2 29.9411 10.0589 38 20 38ZM20 40C31.0457 40 40 31.0457 40 20C40 8.9543 31.0457 0 20 0C8.9543 0 0 8.9543 0 20C0 31.0457 8.9543 40 20 40Z" fill="white"/>
</g>
</svg>
