<svg width="40" height="40" viewBox="0 0 40 40" fill="none" xmlns="http://www.w3.org/2000/svg">
<g id="Frame">
<g id="Group">
<path id="Vector" d="M12.5 21.365C12.2218 21.1034 11.8544 20.9578 11.4725 20.9578C11.0907 20.9578 10.7232 21.1034 10.445 21.365C10.1791 21.644 10.0307 22.0146 10.0307 22.4C10.0307 22.7854 10.1791 23.156 10.445 23.435L10.955 23.945C11.0915 24.0827 11.1681 24.2687 11.1681 24.4625C11.1681 24.6564 11.0915 24.8424 10.955 24.98L2.85503 33.02C2.58286 33.2915 2.36717 33.6142 2.22041 33.9695C2.07366 34.3248 1.99876 34.7056 2.00003 35.09C1.99825 35.4723 2.07298 35.851 2.21981 36.2039C2.36665 36.5569 2.58263 36.8768 2.85503 37.145C3.12321 37.4174 3.44318 37.6334 3.79611 37.7802C4.14904 37.9271 4.52778 38.0018 4.91003 38C5.29444 38.0013 5.67529 37.9264 6.03058 37.7796C6.38587 37.6329 6.70857 37.4172 6.98003 37.145L15.02 29.105C15.148 28.9772 15.3193 28.9022 15.5 28.895C15.6957 28.8938 15.8841 28.9692 16.025 29.105L16.535 29.615C16.814 29.8809 17.1846 30.0293 17.57 30.0293C17.9554 30.0293 18.3261 29.8809 18.605 29.615C18.8666 29.3368 19.0122 28.9694 19.0122 28.5875C19.0122 28.2057 18.8666 27.8382 18.605 27.56L12.5 21.365Z" fill="black"/>
<path id="Vector_2" d="M31.1756 11.93C31.3802 11.9903 31.5924 12.0206 31.8056 12.02H32.0006C32.3596 11.994 32.7084 11.8892 33.0221 11.7128C33.3359 11.5365 33.6068 11.2931 33.8156 11L36.6956 7.15999C36.9327 6.83832 37.0437 6.44098 37.0078 6.04301C36.9719 5.64504 36.7915 5.27401 36.5006 4.99999L35.0006 3.49999C34.7338 3.2097 34.3702 3.02669 33.9781 2.98526C33.586 2.94384 33.1922 3.04686 32.8706 3.27499L29.0006 6.01999C28.6966 6.2249 28.4428 6.49598 28.2583 6.8129C28.0739 7.12982 27.9636 7.48438 27.9356 7.84999C27.9077 8.18965 27.9485 8.53147 28.0556 8.85499C28.0981 8.98441 28.1037 9.12307 28.0719 9.2555C28.0401 9.38793 27.9722 9.50893 27.8756 9.60499L21.6206 15.785C21.587 15.8209 21.5463 15.8495 21.5012 15.869C21.456 15.8885 21.4073 15.8986 21.3581 15.8986C21.3089 15.8986 21.2603 15.8885 21.2151 15.869C21.17 15.8495 21.1293 15.8209 21.0956 15.785L16.2656 11C16.1757 10.9091 16.1117 10.7958 16.08 10.6719C16.0484 10.548 16.0503 10.4179 16.0856 10.295C16.3925 9.17556 16.3974 7.99481 16.0996 6.8729C15.8019 5.75099 15.2123 4.72798 14.3908 3.90797C13.5693 3.08797 12.5452 2.50025 11.4227 2.20463C10.3002 1.90901 9.1195 1.91603 8.00064 2.22499C7.86644 2.25418 7.74339 2.32113 7.646 2.41796C7.54861 2.51479 7.48094 2.63746 7.45099 2.77148C7.42103 2.90551 7.43002 3.04531 7.47692 3.17439C7.52381 3.30347 7.60664 3.41645 7.71564 3.49999L9.89064 5.61499C10.0076 5.73219 10.0816 5.88548 10.1006 6.04999L10.3556 8.37499C10.3713 8.48451 10.3604 8.59619 10.3239 8.70062C10.2873 8.80504 10.2262 8.89914 10.1456 8.97499C10.0637 9.0603 9.96192 9.12408 9.84942 9.16071C9.73692 9.19734 9.61713 9.20568 9.50064 9.18499L7.23564 8.92999C7.07237 8.9068 6.92035 8.83342 6.80064 8.71999L4.62564 6.49999C4.53385 6.41139 4.42059 6.3482 4.29697 6.31663C4.17336 6.28507 4.04367 6.28623 3.92064 6.31999C3.79553 6.35031 3.68083 6.41361 3.5885 6.50331C3.49616 6.593 3.42956 6.70581 3.39564 6.82999C3.09415 7.94791 3.09206 9.12546 3.38957 10.2444C3.68709 11.3634 4.27374 12.3844 5.09064 13.205C5.90485 14.0219 6.92063 14.609 8.03495 14.9067C9.14927 15.2044 10.3225 15.2021 11.4356 14.9C11.56 14.8696 11.6901 14.8716 11.8135 14.9057C11.9369 14.9399 12.0495 15.005 12.1406 15.095L17.0006 19.91C17.0671 19.9842 17.1038 20.0804 17.1038 20.18C17.1038 20.2796 17.0671 20.3757 17.0006 20.45L16.7456 20.69C16.558 20.8947 16.4539 21.1623 16.4539 21.44C16.4539 21.7177 16.558 21.9853 16.7456 22.19L17.7806 23.225C17.883 23.327 18.0047 23.4074 18.1387 23.4616C18.2727 23.5157 18.4162 23.5423 18.5606 23.54C18.703 23.5429 18.8444 23.5165 18.976 23.4623C19.1076 23.4081 19.2266 23.3273 19.3256 23.225L30.5006 12.125C30.5871 12.0375 30.6946 11.9737 30.8127 11.9396C30.9309 11.9054 31.0558 11.9021 31.1756 11.93Z" fill="black"/>
<path id="Vector_3" d="M36.0799 25.625C35.2682 24.8041 34.2531 24.2134 33.1384 23.9129C32.0237 23.6125 30.8493 23.6132 29.7349 23.915C29.612 23.9503 29.4819 23.9522 29.358 23.9206C29.2341 23.889 29.1209 23.8249 29.0299 23.735L25.7599 20.465C25.6188 20.3353 25.4341 20.2634 25.2424 20.2634C25.0508 20.2634 24.8661 20.3353 24.7249 20.465L21.6349 23.555C21.4985 23.6927 21.4219 23.8787 21.4219 24.0725C21.4219 24.2663 21.4985 24.4523 21.6349 24.59L24.9049 27.86C24.9949 27.9511 25.0601 28.0637 25.0942 28.1871C25.1283 28.3105 25.1303 28.4406 25.0999 28.565C24.7979 29.6781 24.7956 30.8514 25.0932 31.9657C25.3909 33.08 25.978 34.0958 26.7949 34.91C28.0334 36.1347 29.7032 36.8241 31.4449 36.83C32.0174 36.83 32.5873 36.7544 33.1399 36.605C33.2641 36.5711 33.3769 36.5045 33.4666 36.4121C33.5563 36.3198 33.6196 36.2051 33.6499 36.08C33.6837 35.957 33.6849 35.8273 33.6533 35.7037C33.6217 35.5801 33.5585 35.4668 33.4699 35.375L31.2799 33.2C31.1609 33.0843 31.0865 32.9302 31.0699 32.765L30.8149 30.5C30.804 30.393 30.8172 30.2849 30.8536 30.1837C30.8899 30.0824 30.9485 29.9906 31.0249 29.915C31.1008 29.8345 31.1949 29.7733 31.2993 29.7368C31.4037 29.7002 31.5154 29.6893 31.6249 29.705L33.9499 29.96C34.1109 29.9761 34.2604 30.0509 34.3699 30.17L36.4999 32.285C36.5895 32.377 36.7021 32.4434 36.826 32.4773C36.9499 32.5112 37.0806 32.5113 37.2046 32.4776C37.3285 32.4439 37.4412 32.3777 37.5309 32.2858C37.6207 32.1939 37.6842 32.0797 37.7149 31.955C38.0171 30.8489 38.0252 29.683 37.7385 28.5728C37.4517 27.4625 36.88 26.4464 36.0799 25.625Z" fill="black"/>
</g>
</g>
</svg>
