<svg width="24" height="24" viewBox="0 0 24 24" fill="none" xmlns="http://www.w3.org/2000/svg">
<g id="Frame">
<path id="Vector" d="M21.6029 16.5L19.3979 14.295C19.1633 14.0555 18.8832 13.8653 18.5742 13.7354C18.2651 13.6055 17.9332 13.5386 17.5979 13.5386C17.2627 13.5386 16.9308 13.6055 16.6217 13.7354C16.3126 13.8653 16.0326 14.0555 15.7979 14.295L15.3569 14.736C13.1359 12.8825 11.0847 10.8343 9.22793 8.616L9.67793 8.166C10.155 7.68842 10.4229 7.04101 10.4229 6.366C10.4229 5.69098 10.155 5.04357 9.67793 4.566L7.49993 2.388C7.01783 1.91957 6.37212 1.65753 5.69993 1.65753C5.02774 1.65753 4.38203 1.91957 3.89993 2.388L2.69393 3.594C2.11592 4.17969 1.756 4.94572 1.67412 5.76451C1.59224 6.58331 1.79334 7.40545 2.24393 8.094C5.84053 13.5086 10.4823 18.1504 15.8969 21.747C16.5855 22.1976 17.4076 22.3987 18.2264 22.3168C19.0452 22.2349 19.8112 21.875 20.3969 21.297L21.6029 20.1C21.8424 19.8654 22.0326 19.5853 22.1625 19.2762C22.2924 18.9671 22.3593 18.6353 22.3593 18.3C22.3593 17.9647 22.2924 17.6328 22.1625 17.3238C22.0326 17.0147 21.8424 16.7346 21.6029 16.5Z" fill="white"/>
</g>
</svg>
