<svg width="24" height="24" viewBox="0 0 24 24" fill="none" xmlns="http://www.w3.org/2000/svg">
<g id="Frame">
<path id="Vector" d="M1.19922 12C1.19922 12.3581 1.34145 12.7014 1.59462 12.9546C1.8478 13.2078 2.19118 13.35 2.54922 13.35H10.4242C10.4839 13.35 10.5411 13.3737 10.5833 13.4159C10.6255 13.4581 10.6492 13.5153 10.6492 13.575V21.45C10.6492 21.8081 10.7915 22.1514 11.0446 22.4046C11.2978 22.6578 11.6412 22.8 11.9992 22.8C12.3573 22.8 12.7006 22.6578 12.9538 22.4046C13.207 22.1514 13.3492 21.8081 13.3492 21.45V13.575C13.3492 13.5153 13.3729 13.4581 13.4151 13.4159C13.4573 13.3737 13.5145 13.35 13.5742 13.35H21.4492C21.8073 13.35 22.1506 13.2078 22.4038 12.9546C22.657 12.7014 22.7992 12.3581 22.7992 12C22.7992 11.642 22.657 11.2986 22.4038 11.0454C22.1506 10.7922 21.8073 10.65 21.4492 10.65H13.5742C13.5145 10.65 13.4573 10.6263 13.4151 10.5841C13.3729 10.5419 13.3492 10.4847 13.3492 10.425V2.55001C13.3492 2.19197 13.207 1.84859 12.9538 1.59542C12.7006 1.34224 12.3573 1.20001 11.9992 1.20001C11.6412 1.20001 11.2978 1.34224 11.0446 1.59542C10.7915 1.84859 10.6492 2.19197 10.6492 2.55001V10.425C10.6492 10.4847 10.6255 10.5419 10.5833 10.5841C10.5411 10.6263 10.4839 10.65 10.4242 10.65H2.54922C2.19118 10.65 1.8478 10.7922 1.59462 11.0454C1.34145 11.2986 1.19922 11.642 1.19922 12Z" fill="white"/>
</g>
</svg>
