<svg width="40" height="40" viewBox="0 0 40 40" fill="none" xmlns="http://www.w3.org/2000/svg">
<g id="Frame">
<g id="Group">
<path id="Vector" d="M28.25 18.5C26.3216 18.5 24.4366 19.0718 22.8332 20.1432C21.2298 21.2145 19.9801 22.7373 19.2422 24.5188C18.5042 26.3004 18.3111 28.2608 18.6873 30.1521C19.0636 32.0434 19.9922 33.7807 21.3557 35.1443C22.7193 36.5079 24.4566 37.4365 26.3479 37.8127C28.2392 38.1889 30.1996 37.9958 31.9812 37.2578C33.7627 36.5199 35.2855 35.2702 36.3568 33.6668C37.4282 32.0634 38 30.1784 38 28.25C37.996 25.6654 36.9675 23.1877 35.1399 21.3601C33.3123 19.5325 30.8346 18.504 28.25 18.5ZM32.75 25.37L28.4 31.175C28.2065 31.4327 27.9599 31.6458 27.6769 31.7999C27.394 31.954 27.0812 32.0455 26.7597 32.0683C26.4383 32.091 26.1158 32.0445 25.8139 31.9318C25.512 31.8191 25.2379 31.6428 25.01 31.415L22.76 29.165C22.6495 29.062 22.5608 28.9378 22.4993 28.7998C22.4378 28.6618 22.4048 28.5128 22.4021 28.3618C22.3995 28.2107 22.4272 28.0607 22.4838 27.9206C22.5404 27.7805 22.6246 27.6533 22.7314 27.5464C22.8383 27.4396 22.9655 27.3554 23.1056 27.2988C23.2457 27.2422 23.3957 27.2144 23.5468 27.2171C23.6978 27.2198 23.8468 27.2528 23.9848 27.3143C24.1228 27.3758 24.247 27.4645 24.35 27.575L26.3 29.525C26.3381 29.5607 26.3829 29.5884 26.4319 29.6064C26.4808 29.6244 26.5329 29.6324 26.585 29.63C26.6381 29.6256 26.6896 29.61 26.7362 29.5841C26.7827 29.5582 26.8232 29.5227 26.855 29.48L30.95 24.02C31.129 23.7813 31.3955 23.6235 31.6909 23.5813C31.9863 23.5391 32.2863 23.616 32.525 23.795C32.7637 23.974 32.9215 24.2405 32.9637 24.5359C33.0059 24.8313 32.929 25.1313 32.75 25.37Z" fill="black"/>
<g id="Group_2">
<path id="Vector_2" d="M9.5 17.375H19.25C19.5484 17.375 19.8345 17.2565 20.0455 17.0455C20.2565 16.8345 20.375 16.5484 20.375 16.25C20.375 15.9516 20.2565 15.6655 20.0455 15.4545C19.8345 15.2435 19.5484 15.125 19.25 15.125H9.5C9.20163 15.125 8.91548 15.2435 8.7045 15.4545C8.49353 15.6655 8.375 15.9516 8.375 16.25C8.375 16.5484 8.49353 16.8345 8.7045 17.0455C8.91548 17.2565 9.20163 17.375 9.5 17.375Z" fill="black"/>
<path id="Vector_3" d="M9.5 22.625H14C14.2984 22.625 14.5845 22.5065 14.7955 22.2955C15.0065 22.0845 15.125 21.7984 15.125 21.5C15.125 21.2016 15.0065 20.9155 14.7955 20.7045C14.5845 20.4935 14.2984 20.375 14 20.375H9.5C9.20163 20.375 8.91548 20.4935 8.7045 20.7045C8.49353 20.9155 8.375 21.2016 8.375 21.5C8.375 21.7984 8.49353 22.0845 8.7045 22.2955C8.91548 22.5065 9.20163 22.625 9.5 22.625Z" fill="black"/>
<path id="Vector_4" d="M9.5 27.875H13.625C13.9234 27.875 14.2095 27.7565 14.4205 27.5455C14.6315 27.3345 14.75 27.0484 14.75 26.75C14.75 26.4516 14.6315 26.1655 14.4205 25.9545C14.2095 25.7435 13.9234 25.625 13.625 25.625H9.5C9.20163 25.625 8.91548 25.7435 8.7045 25.9545C8.49353 26.1655 8.375 26.4516 8.375 26.75C8.375 27.0484 8.49353 27.3345 8.7045 27.5455C8.91548 27.7565 9.20163 27.875 9.5 27.875Z" fill="black"/>
<path id="Vector_5" d="M9.875 11.375H22.625C22.7245 11.375 22.8198 11.3355 22.8902 11.2652C22.9605 11.1948 23 11.0995 23 11V6.5C23 6.45076 22.9903 6.40199 22.9715 6.35649C22.9526 6.311 22.925 6.26966 22.8902 6.23484C22.8553 6.20001 22.814 6.17239 22.7685 6.15355C22.723 6.1347 22.6742 6.125 22.625 6.125H20V5.75C19.9979 5.17095 19.8624 4.60019 19.6038 4.08208C19.3452 3.56397 18.9706 3.11249 18.5091 2.76274C18.0476 2.413 17.5117 2.17441 16.9429 2.06553C16.3742 1.95666 15.788 1.98043 15.23 2.135C14.4283 2.3769 13.7277 2.87424 13.2348 3.55123C12.742 4.22822 12.4839 5.04777 12.5 5.885V6.125H9.875C9.82575 6.125 9.77699 6.1347 9.73149 6.15355C9.686 6.17239 9.64466 6.20001 9.60983 6.23484C9.57501 6.26966 9.54739 6.311 9.52855 6.35649C9.5097 6.40199 9.5 6.45076 9.5 6.5V11C9.5 11.0995 9.53951 11.1948 9.60983 11.2652C9.68016 11.3355 9.77554 11.375 9.875 11.375ZM16.25 4.25C16.4725 4.25 16.69 4.31598 16.875 4.4396C17.06 4.56321 17.2042 4.73892 17.2894 4.94448C17.3745 5.15005 17.3968 5.37625 17.3534 5.59448C17.31 5.81271 17.2028 6.01316 17.0455 6.1705C16.8882 6.32783 16.6877 6.43498 16.4695 6.47838C16.2512 6.52179 16.025 6.49951 15.8195 6.41437C15.6139 6.32922 15.4382 6.18502 15.3146 6.00002C15.191 5.81501 15.125 5.59751 15.125 5.375C15.1289 5.07784 15.2487 4.79394 15.4588 4.5838C15.6689 4.37366 15.9528 4.25389 16.25 4.25Z" fill="black"/>
<path id="Vector_6" d="M18.5 35.165C18.4676 35.1148 18.4232 35.0734 18.3709 35.0445C18.3185 35.0157 18.2598 35.0004 18.2 35H5.75C5.55109 35 5.36032 34.921 5.21967 34.7803C5.07902 34.6397 5 34.4489 5 34.25V9.875C5 9.67609 5.07902 9.48532 5.21967 9.34467C5.36032 9.20402 5.55109 9.125 5.75 9.125H6.875C6.97446 9.125 7.06984 9.08549 7.14016 9.01516C7.21049 8.94484 7.25 8.84946 7.25 8.75V6.5C7.25 6.45075 7.2403 6.40199 7.22145 6.35649C7.20261 6.311 7.17499 6.26966 7.14016 6.23484C7.10534 6.20001 7.064 6.17239 7.01851 6.15355C6.97301 6.1347 6.92425 6.125 6.875 6.125H5C4.20435 6.125 3.44129 6.44107 2.87868 7.00368C2.31607 7.56629 2 8.32935 2 9.125L2 35C2 35.7956 2.31607 36.5587 2.87868 37.1213C3.44129 37.6839 4.20435 38 5 38H20.18C20.2566 37.9981 20.331 37.9746 20.3947 37.9321C20.4585 37.8896 20.5088 37.8299 20.54 37.76C20.5681 37.6877 20.573 37.6085 20.5542 37.5333C20.5354 37.4581 20.4938 37.3906 20.435 37.34C19.7072 36.6932 19.0577 35.9632 18.5 35.165Z" fill="black"/>
<path id="Vector_7" d="M30.065 16.385C30.1172 16.3993 30.1723 16.4 30.2248 16.3868C30.2774 16.3737 30.3257 16.3472 30.365 16.31C30.4068 16.2751 30.4406 16.2316 30.4639 16.1824C30.4872 16.1332 30.4995 16.0795 30.5 16.025V9.125C30.5 8.32935 30.1839 7.56629 29.6213 7.00368C29.0587 6.44107 28.2957 6.125 27.5 6.125H25.625C25.5255 6.125 25.4302 6.16451 25.3598 6.23484C25.2895 6.30516 25.25 6.40054 25.25 6.5V8.75C25.25 8.84946 25.2895 8.94484 25.3598 9.01516C25.4302 9.08549 25.5255 9.125 25.625 9.125H26.75C26.9489 9.125 27.1397 9.20402 27.2803 9.34467C27.421 9.48532 27.5 9.67609 27.5 9.875V15.875C27.5007 15.9258 27.5117 15.9759 27.5323 16.0223C27.5529 16.0687 27.5828 16.1105 27.62 16.145C27.6932 16.2134 27.7899 16.251 27.89 16.25H28.25C28.8575 16.249 29.4643 16.2941 30.065 16.385Z" fill="black"/>
</g>
</g>
</g>
</svg>
