<svg width="40" height="40" viewBox="0 0 40 40" fill="none" xmlns="http://www.w3.org/2000/svg">
<g id="Frame">
<path id="Vector" d="M34.25 32.75C34.0511 32.75 33.8603 32.671 33.7197 32.5303C33.579 32.3897 33.5 32.1989 33.5 32V31.25C33.5 31.0511 33.579 30.8603 33.7197 30.7197C33.8603 30.579 34.0511 30.5 34.25 30.5H37.25C37.4489 30.5 37.6397 30.421 37.7803 30.2803C37.921 30.1397 38 29.9489 38 29.75V27.5C38 27.3011 37.921 27.1103 37.7803 26.9697C37.6397 26.829 37.4489 26.75 37.25 26.75H34.25C34.0511 26.75 33.8603 26.671 33.7197 26.5303C33.579 26.3897 33.5 26.1989 33.5 26V25.25C33.5 25.0511 33.579 24.8603 33.7197 24.7197C33.8603 24.579 34.0511 24.5 34.25 24.5H37.25C37.4489 24.5 37.6397 24.421 37.7803 24.2803C37.921 24.1397 38 23.9489 38 23.75V20C37.9966 19.48 37.8143 18.9769 37.4838 18.5754C37.1533 18.1739 36.6947 17.8983 36.185 17.795C33.095 17.18 32 13.835 32 11.15V5.75C32 4.75544 31.6049 3.80161 30.9016 3.09835C30.1984 2.39509 29.2446 2 28.25 2H26C25.8011 2 25.6103 2.07902 25.4697 2.21967C25.329 2.36032 25.25 2.55109 25.25 2.75V11C25.25 12.3924 24.6969 13.7277 23.7123 14.7123C22.7277 15.6969 21.3924 16.25 20 16.25C18.6076 16.25 17.2723 15.6969 16.2877 14.7123C15.3031 13.7277 14.75 12.3924 14.75 11V2.75C14.75 2.55109 14.671 2.36032 14.5303 2.21967C14.3897 2.07902 14.1989 2 14 2H11.75C10.7554 2 9.80161 2.39509 9.09835 3.09835C8.39509 3.80161 8 4.75544 8 5.75V11.15C8 13.82 6.905 17.15 3.815 17.795C3.30531 17.8983 2.84669 18.1739 2.51619 18.5754C2.18568 18.9769 2.00341 19.48 2 20L2 23.75C2 23.9489 2.07902 24.1397 2.21967 24.2803C2.36032 24.421 2.55109 24.5 2.75 24.5H5.75C5.94891 24.5 6.13968 24.579 6.28033 24.7197C6.42098 24.8603 6.5 25.0511 6.5 25.25V26C6.5 26.1989 6.42098 26.3897 6.28033 26.5303C6.13968 26.671 5.94891 26.75 5.75 26.75H2.75C2.55109 26.75 2.36032 26.829 2.21967 26.9697C2.07902 27.1103 2 27.3011 2 27.5L2 29.75C2 29.9489 2.07902 30.1397 2.21967 30.2803C2.28931 30.35 2.37199 30.4052 2.46299 30.4429C2.55398 30.4806 2.65151 30.5 2.75 30.5H5.75C5.94891 30.5 6.13968 30.579 6.28033 30.7197C6.42098 30.8603 6.5 31.0511 6.5 31.25V32C6.5 32.1989 6.42098 32.3897 6.28033 32.5303C6.13968 32.671 5.94891 32.75 5.75 32.75H2.75C2.65151 32.75 2.55398 32.7694 2.46299 32.8071C2.37199 32.8448 2.28931 32.9 2.21967 32.9697C2.07902 33.1103 2 33.3011 2 33.5L2 35.75C2 36.0455 2.0582 36.3381 2.17127 36.611C2.28434 36.884 2.45008 37.1321 2.65901 37.341C2.86794 37.5499 3.11598 37.7157 3.38896 37.8287C3.66194 37.9418 3.95453 38 4.25 38H35.75C36.0455 38 36.3381 37.9418 36.611 37.8287C36.884 37.7157 37.1321 37.5499 37.341 37.341C37.5499 37.1321 37.7157 36.884 37.8287 36.611C37.9418 36.3381 38 36.0455 38 35.75V33.5C38 33.3011 37.921 33.1103 37.7803 32.9697C37.6397 32.829 37.4489 32.75 37.25 32.75H34.25ZM11.75 33.5C11.75 33.8978 11.592 34.2794 11.3107 34.5607C11.0294 34.842 10.6478 35 10.25 35C9.85217 35 9.47064 34.842 9.18934 34.5607C8.90804 34.2794 8.75 33.8978 8.75 33.5V23.75C8.75 23.3522 8.90804 22.9706 9.18934 22.6893C9.47064 22.408 9.85217 22.25 10.25 22.25C10.6478 22.25 11.0294 22.408 11.3107 22.6893C11.592 22.9706 11.75 23.3522 11.75 23.75V33.5ZM26 32C26 32.1989 25.921 32.3897 25.7803 32.5303C25.6397 32.671 25.4489 32.75 25.25 32.75H14.75C14.6515 32.75 14.554 32.7306 14.463 32.6929C14.372 32.6552 14.2893 32.6 14.2197 32.5303C14.15 32.4607 14.0948 32.378 14.0571 32.287C14.0194 32.196 14 32.0985 14 32V31.25C14 31.0511 14.079 30.8603 14.2197 30.7197C14.3603 30.579 14.5511 30.5 14.75 30.5H25.25C25.4489 30.5 25.6397 30.579 25.7803 30.7197C25.921 30.8603 26 31.0511 26 31.25V32ZM26 26C26 26.1989 25.921 26.3897 25.7803 26.5303C25.6397 26.671 25.4489 26.75 25.25 26.75H14.75C14.6515 26.75 14.554 26.7306 14.463 26.6929C14.372 26.6552 14.2893 26.6 14.2197 26.5303C14.15 26.4607 14.0948 26.378 14.0571 26.287C14.0194 26.196 14 26.0985 14 26V25.25C14 25.0511 14.079 24.8603 14.2197 24.7197C14.3603 24.579 14.5511 24.5 14.75 24.5H25.25C25.4489 24.5 25.6397 24.579 25.7803 24.7197C25.921 24.8603 26 25.0511 26 25.25V26ZM31.25 33.5C31.25 33.8978 31.092 34.2794 30.8107 34.5607C30.5294 34.842 30.1478 35 29.75 35C29.3522 35 28.9706 34.842 28.6893 34.5607C28.408 34.2794 28.25 33.8978 28.25 33.5V23.75C28.25 23.3522 28.408 22.9706 28.6893 22.6893C28.9706 22.408 29.3522 22.25 29.75 22.25C30.1478 22.25 30.5294 22.408 30.8107 22.6893C31.092 22.9706 31.25 23.3522 31.25 23.75V33.5Z" fill="black"/>
</g>
</svg>
